<svg width="279" height="54" viewBox="0 0 279 54" fill="none" xmlns="http://www.w3.org/2000/svg">
<g filter="url(#filter0_d_114_35)">
<rect x="5" y="1" width="269" height="44" rx="20" fill="#FFAC3E"/>
<rect x="5" y="1" width="269" height="44" rx="20" stroke="black"/>
</g>
<path d="M68.738 30L71.258 17.4H73.598L71.474 28.02H78.062L77.666 30H68.738ZM85.5849 30.18C84.3129 30.18 83.2269 29.952 82.3269 29.496C81.4269 29.04 80.7369 28.41 80.2569 27.606C79.7889 26.79 79.5549 25.854 79.5549 24.798C79.5549 23.73 79.7349 22.74 80.0949 21.828C80.4549 20.904 80.9769 20.1 81.6609 19.416C82.3449 18.732 83.1609 18.198 84.1089 17.814C85.0569 17.418 86.1129 17.22 87.2769 17.22C88.5369 17.22 89.6169 17.448 90.5169 17.904C91.4169 18.36 92.1069 18.996 92.5869 19.812C93.0669 20.616 93.3069 21.546 93.3069 22.602C93.3069 23.67 93.1209 24.666 92.7489 25.59C92.3889 26.502 91.8669 27.3 91.1829 27.984C90.4989 28.668 89.6829 29.208 88.7349 29.604C87.7989 29.988 86.7489 30.18 85.5849 30.18ZM85.7829 28.128C86.5749 28.128 87.2889 27.99 87.9249 27.714C88.5609 27.426 89.1009 27.036 89.5449 26.544C90.0009 26.04 90.3489 25.464 90.5889 24.816C90.8289 24.156 90.9489 23.466 90.9489 22.746C90.9489 22.062 90.7989 21.456 90.4989 20.928C90.1989 20.4 89.7609 19.992 89.1849 19.704C88.6089 19.416 87.9009 19.272 87.0609 19.272C86.2809 19.272 85.5669 19.416 84.9189 19.704C84.2829 19.98 83.7369 20.37 83.2809 20.874C82.8369 21.366 82.4949 21.942 82.2549 22.602C82.0269 23.25 81.9129 23.934 81.9129 24.654C81.9129 25.338 82.0569 25.944 82.3449 26.472C82.6449 27 83.0829 27.408 83.6589 27.696C84.2349 27.984 84.9429 28.128 85.7829 28.128ZM98.5592 30.18C97.8992 30.18 97.2572 30.114 96.6332 29.982C96.0212 29.85 95.4572 29.676 94.9412 29.46C94.4372 29.232 94.0172 28.98 93.6812 28.704L94.6712 26.868C95.0192 27.156 95.4152 27.402 95.8592 27.606C96.3032 27.81 96.7712 27.966 97.2632 28.074C97.7672 28.182 98.2712 28.236 98.7752 28.236C99.3872 28.236 99.9212 28.164 100.377 28.02C100.833 27.876 101.181 27.672 101.421 27.408C101.673 27.144 101.799 26.826 101.799 26.454C101.799 26.118 101.685 25.848 101.457 25.644C101.229 25.428 100.923 25.254 100.539 25.122C100.167 24.978 99.7532 24.846 99.2972 24.726C98.8532 24.594 98.4032 24.45 97.9472 24.294C97.4912 24.126 97.0772 23.922 96.7052 23.682C96.3332 23.43 96.0272 23.112 95.7872 22.728C95.5592 22.344 95.4452 21.864 95.4452 21.288C95.4452 20.46 95.6732 19.746 96.1292 19.146C96.5972 18.534 97.2392 18.06 98.0552 17.724C98.8832 17.388 99.8432 17.22 100.935 17.22C101.751 17.22 102.525 17.31 103.257 17.49C103.989 17.67 104.619 17.934 105.147 18.282L104.229 20.136C103.761 19.824 103.233 19.584 102.645 19.416C102.057 19.248 101.445 19.164 100.809 19.164C100.185 19.164 99.6452 19.242 99.1892 19.398C98.7332 19.554 98.3852 19.77 98.1452 20.046C97.9052 20.322 97.7792 20.646 97.7672 21.018C97.7672 21.366 97.8812 21.648 98.1092 21.864C98.3372 22.068 98.6372 22.242 99.0092 22.386C99.3812 22.53 99.7952 22.668 100.251 22.8C100.707 22.92 101.157 23.058 101.601 23.214C102.057 23.37 102.477 23.568 102.861 23.808C103.245 24.048 103.551 24.354 103.779 24.726C104.007 25.086 104.121 25.542 104.121 26.094C104.121 26.922 103.887 27.642 103.419 28.254C102.963 28.866 102.315 29.34 101.475 29.676C100.647 30.012 99.6752 30.18 98.5592 30.18ZM108.138 30L110.262 19.38H106.086L106.482 17.4H117.156L116.76 19.38H112.584L110.478 30H108.138ZM125.344 30.18C124.48 30.18 123.724 30.054 123.076 29.802C122.44 29.55 121.942 29.196 121.582 28.74C121.222 28.272 121.042 27.726 121.042 27.102C121.042 26.418 121.228 25.806 121.6 25.266C121.972 24.726 122.512 24.228 123.22 23.772C123.928 23.316 124.786 22.878 125.794 22.458C126.67 22.11 127.342 21.798 127.81 21.522C128.278 21.246 128.596 20.982 128.764 20.73C128.944 20.478 129.034 20.202 129.034 19.902C129.034 19.602 128.92 19.356 128.692 19.164C128.464 18.96 128.14 18.858 127.72 18.858C127.168 18.858 126.724 19.002 126.388 19.29C126.064 19.578 125.902 19.968 125.902 20.46C125.902 20.724 125.974 21.006 126.118 21.306C126.274 21.594 126.532 21.948 126.892 22.368L132.292 28.758L130.798 30.198L124.966 23.286C124.594 22.854 124.312 22.428 124.12 22.008C123.928 21.588 123.832 21.144 123.832 20.676C123.832 19.968 124.006 19.362 124.354 18.858C124.714 18.342 125.194 17.946 125.794 17.67C126.394 17.394 127.06 17.256 127.792 17.256C128.416 17.256 128.962 17.352 129.43 17.544C129.91 17.736 130.282 18.018 130.546 18.39C130.822 18.75 130.96 19.194 130.96 19.722C130.96 20.346 130.786 20.898 130.438 21.378C130.09 21.846 129.586 22.278 128.926 22.674C128.266 23.07 127.462 23.466 126.514 23.862C125.77 24.186 125.158 24.492 124.678 24.78C124.21 25.068 123.862 25.368 123.634 25.68C123.406 25.98 123.292 26.328 123.292 26.724C123.292 27.192 123.484 27.582 123.868 27.894C124.264 28.194 124.828 28.344 125.56 28.344C126.292 28.344 127 28.176 127.684 27.84C128.38 27.492 129.01 26.976 129.574 26.292C130.15 25.608 130.636 24.762 131.032 23.754L132.76 24.348C132.268 25.596 131.65 26.658 130.906 27.534C130.162 28.398 129.316 29.058 128.368 29.514C127.432 29.958 126.424 30.18 125.344 30.18ZM142.578 23.196H148.86L148.464 25.176H142.182L142.578 23.196ZM141.408 30H139.068L141.588 17.4H150.786L150.39 19.362H143.532L141.408 30ZM156.688 30.18C155.416 30.18 154.33 29.952 153.43 29.496C152.53 29.04 151.84 28.41 151.36 27.606C150.892 26.79 150.658 25.854 150.658 24.798C150.658 23.73 150.838 22.74 151.198 21.828C151.558 20.904 152.08 20.1 152.764 19.416C153.448 18.732 154.264 18.198 155.212 17.814C156.16 17.418 157.216 17.22 158.38 17.22C159.64 17.22 160.72 17.448 161.62 17.904C162.52 18.36 163.21 18.996 163.69 19.812C164.17 20.616 164.41 21.546 164.41 22.602C164.41 23.67 164.224 24.666 163.852 25.59C163.492 26.502 162.97 27.3 162.286 27.984C161.602 28.668 160.786 29.208 159.838 29.604C158.902 29.988 157.852 30.18 156.688 30.18ZM156.886 28.128C157.678 28.128 158.392 27.99 159.028 27.714C159.664 27.426 160.204 27.036 160.648 26.544C161.104 26.04 161.452 25.464 161.692 24.816C161.932 24.156 162.052 23.466 162.052 22.746C162.052 22.062 161.902 21.456 161.602 20.928C161.302 20.4 160.864 19.992 160.288 19.704C159.712 19.416 159.004 19.272 158.164 19.272C157.384 19.272 156.67 19.416 156.022 19.704C155.386 19.98 154.84 20.37 154.384 20.874C153.94 21.366 153.598 21.942 153.358 22.602C153.13 23.25 153.016 23.934 153.016 24.654C153.016 25.338 153.16 25.944 153.448 26.472C153.748 27 154.186 27.408 154.762 27.696C155.338 27.984 156.046 28.128 156.886 28.128ZM171.301 30.18C170.113 30.18 169.123 29.946 168.331 29.478C167.539 29.01 166.981 28.356 166.657 27.516C166.345 26.664 166.303 25.662 166.531 24.51L167.953 17.4H170.293L168.871 24.474C168.763 25.086 168.733 25.626 168.781 26.094C168.841 26.55 168.985 26.934 169.213 27.246C169.453 27.546 169.765 27.768 170.149 27.912C170.545 28.056 171.007 28.128 171.535 28.128C172.207 28.128 172.783 28.002 173.263 27.75C173.755 27.498 174.163 27.102 174.487 26.562C174.823 26.01 175.081 25.308 175.261 24.456L176.665 17.4H178.969L177.529 24.618C177.157 26.466 176.449 27.858 175.405 28.794C174.361 29.718 172.993 30.18 171.301 30.18ZM179.744 30L182.264 17.4H184.19L189.932 27.174L189.194 27.084L191.12 17.4H193.442L190.922 30H188.996L183.272 20.226L184.01 20.316L182.066 30H179.744ZM194.316 30L196.836 17.4H201.93C203.214 17.4 204.312 17.616 205.224 18.048C206.136 18.468 206.832 19.068 207.312 19.848C207.804 20.628 208.05 21.546 208.05 22.602C208.05 23.718 207.858 24.732 207.474 25.644C207.102 26.556 206.568 27.336 205.872 27.984C205.188 28.62 204.366 29.118 203.406 29.478C202.446 29.826 201.378 30 200.202 30H194.316ZM197.052 28.02H200.274C201.402 28.02 202.368 27.792 203.172 27.336C203.988 26.868 204.612 26.238 205.044 25.446C205.476 24.654 205.692 23.754 205.692 22.746C205.692 22.062 205.542 21.468 205.242 20.964C204.942 20.46 204.492 20.07 203.892 19.794C203.304 19.518 202.566 19.38 201.678 19.38H198.78L197.052 28.02Z" fill="black"/>
<path d="M68.738 30L68.2477 29.9019L68.1281 30.5H68.738V30ZM71.258 17.4V16.9H70.8481L70.7677 17.3019L71.258 17.4ZM73.598 17.4L74.0883 17.4981L74.2079 16.9H73.598V17.4ZM71.474 28.02L70.9837 27.9219L70.8641 28.52H71.474V28.02ZM78.062 28.02L78.5523 28.1181L78.6719 27.52H78.062V28.02ZM77.666 30V30.5H78.0759L78.1563 30.0981L77.666 30ZM69.2283 30.0981L71.7483 17.4981L70.7677 17.3019L68.2477 29.9019L69.2283 30.0981ZM71.258 17.9H73.598V16.9H71.258V17.9ZM73.1077 17.3019L70.9837 27.9219L71.9643 28.1181L74.0883 17.4981L73.1077 17.3019ZM71.474 28.52H78.062V27.52H71.474V28.52ZM77.5717 27.9219L77.1757 29.9019L78.1563 30.0981L78.5523 28.1181L77.5717 27.9219ZM77.666 29.5H68.738V30.5H77.666V29.5ZM82.3269 29.496L82.1009 29.942L82.3269 29.496ZM80.2569 27.606L79.8231 27.8548L79.8276 27.8623L80.2569 27.606ZM80.0949 21.828L80.56 22.0116L80.5608 22.0095L80.0949 21.828ZM81.6609 19.416L82.0144 19.7696L82.0144 19.7696L81.6609 19.416ZM84.1089 17.814L84.2966 18.2775L84.3016 18.2754L84.1089 17.814ZM90.5169 17.904L90.7429 17.458H90.7429L90.5169 17.904ZM92.5869 19.812L92.1559 20.0655L92.1576 20.0683L92.5869 19.812ZM92.7489 25.59L92.285 25.4033L92.2838 25.4064L92.7489 25.59ZM91.1829 27.984L90.8293 27.6304L91.1829 27.984ZM88.7349 29.604L88.9247 30.0666L88.9276 30.0654L88.7349 29.604ZM87.9249 27.714L88.1239 28.1727L88.1311 28.1695L87.9249 27.714ZM89.5449 26.544L89.1741 26.2085L89.1737 26.209L89.5449 26.544ZM90.5889 24.816L91.0578 24.9897L91.0588 24.9869L90.5889 24.816ZM90.4989 20.928L90.0641 21.175L90.4989 20.928ZM89.1849 19.704L88.9613 20.1512L89.1849 19.704ZM84.9189 19.704L85.1179 20.1627L85.1219 20.1609L84.9189 19.704ZM83.2809 20.874L82.9101 20.5385L82.9097 20.539L83.2809 20.874ZM82.2549 22.602L81.785 22.4311L81.7832 22.436L82.2549 22.602ZM82.3449 26.472L81.9059 26.7115L81.9101 26.719L82.3449 26.472ZM83.6589 27.696L83.4353 28.1432L83.6589 27.696ZM85.5849 29.68C84.3714 29.68 83.3669 29.4625 82.5529 29.05L82.1009 29.942C83.0868 30.4415 84.2543 30.68 85.5849 30.68V29.68ZM82.5529 29.05C81.7304 28.6333 81.1139 28.0662 80.6862 27.3497L79.8276 27.8623C80.3598 28.7538 81.1233 29.4467 82.1009 29.942L82.5529 29.05ZM80.6906 27.3572C80.2712 26.6259 80.0549 25.7776 80.0549 24.798H79.0549C79.0549 25.9304 79.3066 26.9541 79.8231 27.8548L80.6906 27.3572ZM80.0549 24.798C80.0549 23.7872 80.225 22.8601 80.56 22.0116L79.6298 21.6444C79.2447 22.6199 79.0549 23.6728 79.0549 24.798H80.0549ZM80.5608 22.0095C80.8963 21.1484 81.3806 20.4034 82.0144 19.7696L81.3073 19.0624C80.5731 19.7966 80.0135 20.6596 79.629 21.6465L80.5608 22.0095ZM82.0144 19.7696C82.6484 19.1356 83.4071 18.6377 84.2966 18.2774L83.9212 17.3506C82.9147 17.7583 82.0414 18.3284 81.3073 19.0624L82.0144 19.7696ZM84.3016 18.2754C85.181 17.908 86.1703 17.72 87.2769 17.72V16.72C86.0555 16.72 84.9328 16.928 83.9162 17.3526L84.3016 18.2754ZM87.2769 17.72C88.4775 17.72 89.4762 17.9372 90.2909 18.35L90.7429 17.458C89.7576 16.9588 88.5963 16.72 87.2769 16.72V17.72ZM90.2909 18.35C91.1114 18.7658 91.7276 19.3375 92.1559 20.0655L93.0178 19.5585C92.4861 18.6545 91.7223 17.9542 90.7429 17.458L90.2909 18.35ZM92.1576 20.0683C92.5856 20.7853 92.8069 21.6245 92.8069 22.602H93.8069C93.8069 21.4675 93.5481 20.4467 93.0162 19.5557L92.1576 20.0683ZM92.8069 22.602C92.8069 23.6107 92.6315 24.5428 92.2851 25.4033L93.2127 25.7767C93.6103 24.7892 93.8069 23.7293 93.8069 22.602H92.8069ZM92.2838 25.4064C91.9486 26.2556 91.4642 26.9955 90.8293 27.6304L91.5364 28.3376C92.2695 27.6045 92.8292 26.7484 93.214 25.7736L92.2838 25.4064ZM90.8293 27.6304C90.1942 28.2656 89.4338 28.7702 88.5422 29.1426L88.9276 30.0654C89.9319 29.6458 90.8035 29.0704 91.5364 28.3376L90.8293 27.6304ZM88.5451 29.1414C87.6777 29.4973 86.6935 29.68 85.5849 29.68V30.68C86.8043 30.68 87.9201 30.4787 88.9247 30.0666L88.5451 29.1414ZM85.7829 28.628C86.6336 28.628 87.4168 28.4795 88.1239 28.1727L87.7258 27.2553C87.161 27.5005 86.5161 27.628 85.7829 27.628V28.628ZM88.1311 28.1695C88.8264 27.8546 89.4235 27.4248 89.9161 26.879L89.1737 26.209C88.7782 26.6472 88.2954 26.9974 87.7186 27.2585L88.1311 28.1695ZM89.9156 26.8795C90.4151 26.3275 90.796 25.6963 91.0578 24.9897L90.12 24.6423C89.9017 25.2317 89.5867 25.7525 89.1741 26.2085L89.9156 26.8795ZM91.0588 24.9869C91.3192 24.2707 91.4489 23.5228 91.4489 22.746H90.4489C90.4489 23.4092 90.3386 24.0413 90.119 24.6451L91.0588 24.9869ZM91.4489 22.746C91.4489 21.9865 91.2816 21.2934 90.9336 20.681L90.0641 21.175C90.3162 21.6186 90.4489 22.1375 90.4489 22.746H91.4489ZM90.9336 20.681C90.5816 20.0615 90.0675 19.5863 89.4085 19.2568L88.9613 20.1512C89.4542 20.3977 89.8161 20.7385 90.0641 21.175L90.9336 20.681ZM89.4085 19.2568C88.7452 18.9252 87.9557 18.772 87.0609 18.772V19.772C87.846 19.772 88.4725 19.9068 88.9613 20.1512L89.4085 19.2568ZM87.0609 18.772C86.218 18.772 85.4339 18.928 84.7158 19.2471L85.1219 20.1609C85.6999 19.904 86.3438 19.772 87.0609 19.772V18.772ZM84.7198 19.2453C84.0198 19.5491 83.4149 19.9806 82.9101 20.5385L83.6516 21.2095C84.0589 20.7594 84.5459 20.4109 85.1179 20.1627L84.7198 19.2453ZM82.9097 20.539C82.42 21.0817 82.0457 21.7142 81.785 22.4311L82.7248 22.7729C82.9441 22.1698 83.2538 21.6503 83.6521 21.209L82.9097 20.539ZM81.7832 22.436C81.5356 23.1399 81.4129 23.8802 81.4129 24.654H82.4129C82.4129 23.9878 82.5182 23.3601 82.7265 22.768L81.7832 22.436ZM81.4129 24.654C81.4129 25.41 81.5726 26.1004 81.9059 26.7114L82.7838 26.2326C82.5411 25.7876 82.4129 25.266 82.4129 24.654H81.4129ZM81.9101 26.719C82.2621 27.3385 82.7762 27.8137 83.4353 28.1432L83.8825 27.2488C83.3895 27.0023 83.0276 26.6615 82.7796 26.225L81.9101 26.719ZM83.4353 28.1432C84.0985 28.4748 84.888 28.628 85.7829 28.628V27.628C84.9977 27.628 84.3712 27.4932 83.8825 27.2488L83.4353 28.1432ZM96.6332 29.982L96.5278 30.4708L96.5297 30.4712L96.6332 29.982ZM94.9412 29.46L94.7351 29.9156L94.7416 29.9185L94.7481 29.9212L94.9412 29.46ZM93.6812 28.704L93.2411 28.4667L93.0457 28.8291L93.3638 29.0904L93.6812 28.704ZM94.6712 26.868L94.99 26.4828L94.5204 26.0942L94.2311 26.6307L94.6712 26.868ZM95.8592 27.606L95.6505 28.0603L95.8592 27.606ZM97.2632 28.074L97.156 28.5624L97.1585 28.5629L97.2632 28.074ZM100.377 28.02L100.528 28.4968L100.377 28.02ZM101.421 27.408L101.059 27.0627L101.051 27.0717L101.421 27.408ZM101.457 25.644L101.113 26.007L101.119 26.0119L101.124 26.0166L101.457 25.644ZM100.539 25.122L100.359 25.5883L100.368 25.5917L100.377 25.5948L100.539 25.122ZM99.2972 24.726L99.1547 25.2053L99.1623 25.2075L99.17 25.2095L99.2972 24.726ZM97.9472 24.294L97.7743 24.7633L97.7854 24.7671L97.9472 24.294ZM96.7052 23.682L96.4247 24.0961L96.4342 24.1021L96.7052 23.682ZM95.7872 22.728L95.3572 22.9833L95.3632 22.993L95.7872 22.728ZM96.1292 19.146L95.732 18.8423L95.7311 18.8435L96.1292 19.146ZM98.0552 17.724L97.8672 17.2607L97.8648 17.2617L98.0552 17.724ZM103.257 17.49L103.377 17.0045L103.257 17.49ZM105.147 18.282L105.595 18.5039L105.791 18.1078L105.422 17.8645L105.147 18.282ZM104.229 20.136L103.952 20.552L104.425 20.8674L104.677 20.3579L104.229 20.136ZM102.645 19.416L102.508 19.8968L102.645 19.416ZM99.1892 19.398L99.0274 18.9249L99.1892 19.398ZM98.1452 20.046L97.7679 19.7179V19.7179L98.1452 20.046ZM97.7672 21.018L97.2675 21.0019L97.2672 21.0099V21.018H97.7672ZM98.1092 21.864L97.7653 22.227L97.7705 22.2319L97.7758 22.2366L98.1092 21.864ZM99.0092 22.386L98.8287 22.8523L99.0092 22.386ZM100.251 22.8L100.112 23.2804L100.124 23.2835L100.251 22.8ZM101.601 23.214L101.435 23.6857L101.439 23.6871L101.601 23.214ZM102.861 23.808L102.596 24.232L102.861 23.808ZM103.779 24.726L103.353 24.9873L103.357 24.9935L103.779 24.726ZM103.419 28.254L103.022 27.9503L103.018 27.9553L103.419 28.254ZM101.475 29.676L101.29 29.2118L101.287 29.2127L101.475 29.676ZM98.5592 29.68C97.9328 29.68 97.3255 29.6174 96.7367 29.4928L96.5297 30.4712C97.1889 30.6106 97.8657 30.68 98.5592 30.68V29.68ZM96.7386 29.4932C96.1531 29.367 95.6189 29.2016 95.1343 28.9988L94.7481 29.9212C95.2956 30.1504 95.8893 30.333 96.5278 30.4708L96.7386 29.4932ZM95.1473 29.0044C94.673 28.7899 94.293 28.5594 93.9986 28.3176L93.3638 29.0904C93.7415 29.4006 94.2014 29.6741 94.7351 29.9156L95.1473 29.0044ZM94.1213 28.9413L95.1113 27.1053L94.2311 26.6307L93.2411 28.4667L94.1213 28.9413ZM94.3524 27.2532C94.7366 27.5711 95.1701 27.8396 95.6505 28.0603L96.068 27.1517C95.6603 26.9644 95.3019 26.7409 94.99 26.4828L94.3524 27.2532ZM95.6505 28.0603C96.128 28.2797 96.6301 28.4469 97.156 28.5624L97.3704 27.5856C96.9123 27.4851 96.4784 27.3403 96.068 27.1517L95.6505 28.0603ZM97.1585 28.5629C97.6961 28.6781 98.2352 28.736 98.7752 28.736V27.736C98.3072 27.736 97.8383 27.6859 97.368 27.5851L97.1585 28.5629ZM98.7752 28.736C99.4248 28.736 100.012 28.6598 100.528 28.4968L100.227 27.5432C99.8308 27.6682 99.3497 27.736 98.7752 27.736V28.736ZM100.528 28.4968C101.04 28.3349 101.475 28.0923 101.791 27.7443L101.051 27.0717C100.888 27.2517 100.626 27.4171 100.227 27.5432L100.528 28.4968ZM101.783 27.7532C102.126 27.3942 102.299 26.9518 102.299 26.454H101.299C101.299 26.7002 101.221 26.8938 101.06 27.0628L101.783 27.7532ZM102.299 26.454C102.299 25.9914 102.136 25.5802 101.791 25.2714L101.124 26.0166C101.235 26.1158 101.299 26.2446 101.299 26.454H102.299ZM101.801 25.281C101.508 25.0037 101.134 24.7979 100.702 24.6492L100.377 25.5948C100.712 25.7101 100.95 25.8523 101.113 26.007L101.801 25.281ZM100.72 24.6557C100.328 24.5039 99.8954 24.3664 99.4245 24.2425L99.17 25.2095C99.6111 25.3256 100.007 25.4521 100.359 25.5883L100.72 24.6557ZM99.4397 24.2467C99.0025 24.1167 98.5589 23.9748 98.1091 23.8209L97.7854 24.7671C98.2475 24.9252 98.704 25.0713 99.1547 25.2053L99.4397 24.2467ZM98.1201 23.8248C97.6952 23.6683 97.3146 23.4801 96.9763 23.2619L96.4342 24.1021C96.8398 24.3639 97.2872 24.5837 97.7744 24.7632L98.1201 23.8248ZM96.9856 23.268C96.6718 23.0555 96.4146 22.7884 96.2112 22.463L95.3632 22.993C95.6399 23.4356 95.9946 23.8045 96.4248 24.096L96.9856 23.268ZM96.2171 22.4727C96.0465 22.1853 95.9452 21.7997 95.9452 21.288H94.9452C94.9452 21.9283 95.0719 22.5027 95.3573 22.9833L96.2171 22.4727ZM95.9452 21.288C95.9452 20.5579 96.144 19.9529 96.5273 19.4485L95.7311 18.8435C95.2024 19.5391 94.9452 20.3621 94.9452 21.288H95.9452ZM96.5264 19.4497C96.9333 18.9176 97.4993 18.4937 98.2456 18.1863L97.8648 17.2617C96.9792 17.6263 96.2612 18.1504 95.732 18.8423L96.5264 19.4497ZM98.2432 18.1873C98.9998 17.8803 99.8938 17.72 100.935 17.72V16.72C99.7927 16.72 98.7666 16.8957 97.8672 17.2607L98.2432 18.1873ZM100.935 17.72C101.714 17.72 102.448 17.8059 103.138 17.9755L103.377 17.0045C102.602 16.8141 101.788 16.72 100.935 16.72V17.72ZM103.138 17.9755C103.825 18.1445 104.4 18.3883 104.872 18.6995L105.422 17.8645C104.839 17.4797 104.154 17.1955 103.377 17.0045L103.138 17.9755ZM104.699 18.0601L103.781 19.9141L104.677 20.3579L105.595 18.5039L104.699 18.0601ZM104.507 19.72C103.992 19.3769 103.416 19.1162 102.783 18.9352L102.508 19.8968C103.05 20.0518 103.53 20.2711 103.952 20.552L104.507 19.72ZM102.783 18.9352C102.148 18.754 101.49 18.664 100.809 18.664V19.664C101.401 19.664 101.966 19.742 102.508 19.8968L102.783 18.9352ZM100.809 18.664C100.146 18.664 99.5483 18.7467 99.0274 18.9249L99.3511 19.8711C99.7422 19.7373 100.225 19.664 100.809 19.664V18.664ZM99.0274 18.9249C98.5137 19.1006 98.0813 19.3576 97.7679 19.7179L98.5225 20.3741C98.6892 20.1824 98.9527 20.0074 99.3511 19.8711L99.0274 18.9249ZM97.7679 19.7179C97.451 20.0824 97.2831 20.5171 97.2675 21.0019L98.267 21.0341C98.2753 20.7749 98.3594 20.5616 98.5225 20.3741L97.7679 19.7179ZM97.2672 21.018C97.2672 21.4869 97.4264 21.9058 97.7653 22.227L98.4531 21.501C98.3361 21.3902 98.2672 21.2451 98.2672 21.018H97.2672ZM97.7758 22.2366C98.0601 22.4909 98.4167 22.6928 98.8287 22.8523L99.1897 21.9197C98.8577 21.7912 98.6144 21.6451 98.4426 21.4914L97.7758 22.2366ZM98.8287 22.8523C99.2166 23.0024 99.6447 23.145 100.112 23.2803L100.39 22.3197C99.9457 22.191 99.5458 22.0576 99.1897 21.9197L98.8287 22.8523ZM100.124 23.2835C100.567 23.4001 101.004 23.5342 101.435 23.6857L101.767 22.7423C101.31 22.5818 100.847 22.4399 100.378 22.3165L100.124 23.2835ZM101.439 23.6871C101.862 23.8315 102.247 24.0135 102.596 24.232L103.126 23.384C102.708 23.1225 102.253 22.9085 101.763 22.7409L101.439 23.6871ZM102.596 24.232C102.917 24.4326 103.167 24.6838 103.353 24.9873L104.206 24.4647C103.936 24.0242 103.573 23.6634 103.126 23.384L102.596 24.232ZM103.357 24.9935C103.521 25.253 103.621 25.6092 103.621 26.094H104.621C104.621 25.4748 104.493 24.919 104.202 24.4585L103.357 24.9935ZM103.621 26.094C103.621 26.821 103.418 27.4322 103.022 27.9503L103.816 28.5577C104.356 27.8518 104.621 27.023 104.621 26.094H103.621ZM103.018 27.9553C102.627 28.4806 102.06 28.9036 101.29 29.2118L101.661 30.1402C102.571 29.7764 103.3 29.2514 103.82 28.5527L103.018 27.9553ZM101.287 29.2127C100.532 29.5192 99.6263 29.68 98.5592 29.68V30.68C99.7242 30.68 100.763 30.5048 101.663 30.1393L101.287 29.2127ZM108.138 30L107.647 29.9019L107.528 30.5H108.138V30ZM110.262 19.38L110.752 19.4781L110.872 18.88H110.262V19.38ZM106.086 19.38L105.595 19.2819L105.476 19.88H106.086V19.38ZM106.482 17.4V16.9H106.072L105.991 17.3019L106.482 17.4ZM117.156 17.4L117.646 17.4981L117.766 16.9H117.156V17.4ZM116.76 19.38V19.88H117.17L117.25 19.4781L116.76 19.38ZM112.584 19.38V18.88H112.173L112.093 19.2827L112.584 19.38ZM110.478 30V30.5H110.888L110.968 30.0973L110.478 30ZM108.628 30.0981L110.752 19.4781L109.771 19.2819L107.647 29.9019L108.628 30.0981ZM110.262 18.88H106.086V19.88H110.262V18.88ZM106.576 19.4781L106.972 17.4981L105.991 17.3019L105.595 19.2819L106.576 19.4781ZM106.482 17.9H117.156V16.9H106.482V17.9ZM116.665 17.3019L116.269 19.2819L117.25 19.4781L117.646 17.4981L116.665 17.3019ZM116.76 18.88H112.584V19.88H116.76V18.88ZM112.093 19.2827L109.987 29.9027L110.968 30.0973L113.074 19.4773L112.093 19.2827ZM110.478 29.5H108.138V30.5H110.478V29.5ZM123.076 29.802L122.892 30.2668L122.895 30.268L123.076 29.802ZM121.582 28.74L121.186 29.0449L121.19 29.0498L121.582 28.74ZM121.6 25.266L122.012 25.5497L121.6 25.266ZM125.794 22.458L125.61 21.9933L125.602 21.9965L125.794 22.458ZM127.81 21.522L128.064 21.9527L127.81 21.522ZM128.764 20.73L128.358 20.4394L128.353 20.4459L128.348 20.4526L128.764 20.73ZM128.692 19.164L128.359 19.5366L128.365 19.5416L128.37 19.5465L128.692 19.164ZM126.388 19.29L126.063 18.9103L126.056 18.9163L126.388 19.29ZM126.118 21.306L125.668 21.5224L125.673 21.5334L125.679 21.5441L126.118 21.306ZM126.892 22.368L127.274 22.0453L127.272 22.0426L126.892 22.368ZM132.292 28.758L132.639 29.118L132.977 28.793L132.674 28.4353L132.292 28.758ZM130.798 30.198L130.416 30.5204L130.761 30.9287L131.145 30.558L130.798 30.198ZM124.966 23.286L125.349 22.9635L125.345 22.9597L124.966 23.286ZM124.12 22.008L124.575 21.8001L124.12 22.008ZM124.354 18.858L123.944 18.5719L123.943 18.5739L124.354 18.858ZM125.794 17.67L125.586 17.2158L125.794 17.67ZM129.43 17.544L129.241 18.0066L129.245 18.0082L129.43 17.544ZM130.546 18.39L130.139 18.6794L130.144 18.6869L130.15 18.6942L130.546 18.39ZM130.438 21.378L130.84 21.6764L130.843 21.6715L130.438 21.378ZM128.926 22.674L128.669 22.2453L128.926 22.674ZM126.514 23.862L126.322 23.4006L126.315 23.4036L126.514 23.862ZM124.678 24.78L124.421 24.3512L124.416 24.3542L124.678 24.78ZM123.634 25.68L124.033 25.9826L124.038 25.975L123.634 25.68ZM123.868 27.894L123.553 28.2821L123.56 28.2874L123.567 28.2925L123.868 27.894ZM127.684 27.84L127.905 28.2888L127.908 28.2872L127.684 27.84ZM129.574 26.292L129.192 25.9699L129.189 25.9739L129.574 26.292ZM131.032 23.754L131.195 23.2812L130.742 23.1255L130.567 23.5712L131.032 23.754ZM132.76 24.348L133.226 24.5314L133.417 24.0451L132.923 23.8752L132.76 24.348ZM130.906 27.534L131.285 27.8603L131.288 27.8577L130.906 27.534ZM128.368 29.514L128.583 29.9658L128.585 29.9646L128.368 29.514ZM125.344 29.68C124.528 29.68 123.836 29.5608 123.258 29.336L122.895 30.268C123.613 30.5472 124.433 30.68 125.344 30.68V29.68ZM123.261 29.3372C122.692 29.1118 122.271 28.8057 121.975 28.4302L121.19 29.0498C121.614 29.5863 122.189 29.9882 122.892 30.2668L123.261 29.3372ZM121.979 28.4351C121.69 28.0597 121.542 27.6224 121.542 27.102H120.542C120.542 27.8296 120.755 28.4843 121.186 29.0449L121.979 28.4351ZM121.542 27.102C121.542 26.5147 121.7 26.0025 122.012 25.5497L121.189 24.9823C120.757 25.6095 120.542 26.3213 120.542 27.102H121.542ZM122.012 25.5497C122.338 25.0772 122.824 24.6223 123.491 24.1924L122.95 23.3516C122.201 23.8337 121.607 24.3748 121.189 24.9823L122.012 25.5497ZM123.491 24.1924C124.168 23.7563 124.999 23.3313 125.987 22.9195L125.602 21.9965C124.574 22.4247 123.689 22.8757 122.95 23.3516L123.491 24.1924ZM125.979 22.9227C126.864 22.571 127.564 22.2479 128.064 21.9527L127.556 21.0913C127.121 21.3481 126.477 21.649 125.61 21.9933L125.979 22.9227ZM128.064 21.9527C128.554 21.6642 128.95 21.3537 129.181 21.0073L128.348 20.4526C128.243 20.6103 128.003 20.8278 127.556 21.0913L128.064 21.9527ZM129.171 21.0206C129.41 20.6867 129.534 20.3097 129.534 19.902H128.534C128.534 20.0943 128.479 20.2693 128.358 20.4394L129.171 21.0206ZM129.534 19.902C129.534 19.4556 129.356 19.0693 129.015 18.7815L128.37 19.5465C128.485 19.6427 128.534 19.7484 128.534 19.902H129.534ZM129.026 18.7914C128.677 18.4791 128.217 18.358 127.72 18.358V19.358C128.064 19.358 128.252 19.4409 128.359 19.5366L129.026 18.7914ZM127.72 18.358C127.08 18.358 126.51 18.5269 126.063 18.9104L126.714 19.6696C126.939 19.4771 127.257 19.358 127.72 19.358V18.358ZM126.056 18.9163C125.611 19.3125 125.402 19.8466 125.402 20.46H126.402C126.402 20.0894 126.518 19.8435 126.721 19.6637L126.056 18.9163ZM125.402 20.46C125.402 20.8158 125.5 21.1719 125.668 21.5224L126.569 21.0896C126.449 20.8401 126.402 20.6322 126.402 20.46H125.402ZM125.679 21.5441C125.859 21.8773 126.143 22.2622 126.513 22.6934L127.272 22.0426C126.922 21.6338 126.69 21.3107 126.558 21.0679L125.679 21.5441ZM126.511 22.6907L131.911 29.0807L132.674 28.4353L127.274 22.0453L126.511 22.6907ZM131.945 28.398L130.451 29.838L131.145 30.558L132.639 29.118L131.945 28.398ZM131.181 29.8756L125.349 22.9636L124.584 23.6084L130.416 30.5204L131.181 29.8756ZM125.345 22.9597C124.997 22.5554 124.744 22.1686 124.575 21.8001L123.666 22.2159C123.881 22.6874 124.192 23.1526 124.588 23.6123L125.345 22.9597ZM124.575 21.8001C124.413 21.4463 124.332 21.0733 124.332 20.676H123.332C123.332 21.2147 123.444 21.7297 123.666 22.2159L124.575 21.8001ZM124.332 20.676C124.332 20.0532 124.484 19.5501 124.766 19.1421L123.943 18.5739C123.529 19.1739 123.332 19.8828 123.332 20.676H124.332ZM124.765 19.1441C125.071 18.7047 125.48 18.365 126.003 18.1242L125.586 17.2158C124.909 17.527 124.358 17.9793 123.944 18.5719L124.765 19.1441ZM126.003 18.1242C126.531 17.8815 127.125 17.756 127.792 17.756V16.756C126.996 16.756 126.258 16.9065 125.586 17.2158L126.003 18.1242ZM127.792 17.756C128.366 17.756 128.845 17.8443 129.241 18.0066L129.62 17.0814C129.08 16.8597 128.467 16.756 127.792 16.756V17.756ZM129.245 18.0082C129.648 18.1694 129.938 18.3959 130.139 18.6794L130.954 18.1006C130.627 17.6401 130.173 17.3026 129.616 17.0798L129.245 18.0082ZM130.15 18.6942C130.348 18.9531 130.46 19.2852 130.46 19.722H131.46C131.46 19.1028 131.297 18.5469 130.943 18.0858L130.15 18.6942ZM130.46 19.722C130.46 20.2465 130.316 20.6945 130.034 21.0845L130.843 21.6715C131.257 21.1015 131.46 20.4455 131.46 19.722H130.46ZM130.037 21.0796C129.739 21.4813 129.29 21.8727 128.669 22.2453L129.184 23.1027C129.883 22.6833 130.442 22.2107 130.84 21.6764L130.037 21.0796ZM128.669 22.2453C128.035 22.6255 127.254 23.0111 126.322 23.4006L126.707 24.3234C127.671 23.9209 128.498 23.5145 129.184 23.1027L128.669 22.2453ZM126.315 23.4036C125.559 23.7327 124.926 24.0484 124.421 24.3513L124.936 25.2087C125.391 24.9356 125.982 24.6393 126.714 24.3204L126.315 23.4036ZM124.416 24.3542C123.915 24.6629 123.51 25.0035 123.231 25.385L124.038 25.975C124.215 25.7325 124.506 25.4731 124.941 25.2058L124.416 24.3542ZM123.236 25.3775C122.939 25.7691 122.792 26.2247 122.792 26.724H123.792C123.792 26.4313 123.874 26.1909 124.033 25.9825L123.236 25.3775ZM122.792 26.724C122.792 27.3522 123.06 27.8814 123.553 28.2821L124.184 27.5059C123.909 27.2826 123.792 27.0318 123.792 26.724H122.792ZM123.567 28.2925C124.082 28.683 124.769 28.844 125.56 28.844V27.844C124.888 27.844 124.447 27.705 124.17 27.4955L123.567 28.2925ZM125.56 28.844C126.372 28.844 127.155 28.6571 127.905 28.2888L127.464 27.3912C126.846 27.6949 126.213 27.844 125.56 27.844V28.844ZM127.908 28.2872C128.675 27.9039 129.358 27.3405 129.96 26.6101L129.189 25.9739C128.663 26.6115 128.086 27.0801 127.461 27.3928L127.908 28.2872ZM129.957 26.6141C130.574 25.8808 131.086 24.9851 131.498 23.9368L130.567 23.5712C130.187 24.5389 129.727 25.3352 129.192 25.9699L129.957 26.6141ZM130.87 24.2268L132.598 24.8208L132.923 23.8752L131.195 23.2812L130.87 24.2268ZM132.295 24.1646C131.82 25.3699 131.228 26.3825 130.525 27.2103L131.288 27.8577C132.072 26.9335 132.717 25.8221 133.226 24.5314L132.295 24.1646ZM130.528 27.2077C129.825 28.024 129.033 28.6397 128.152 29.0634L128.585 29.9646C129.6 29.4763 130.5 28.772 131.285 27.8603L130.528 27.2077ZM128.154 29.0622C127.288 29.4731 126.354 29.68 125.344 29.68V30.68C126.495 30.68 127.577 30.4429 128.583 29.9658L128.154 29.0622ZM142.578 23.196V22.696H142.168L142.088 23.0979L142.578 23.196ZM148.86 23.196L149.35 23.2941L149.47 22.696H148.86V23.196ZM148.464 25.176V25.676H148.874L148.954 25.2741L148.464 25.176ZM142.182 25.176L141.692 25.0779L141.572 25.676H142.182V25.176ZM141.408 30V30.5H141.818L141.898 30.0979L141.408 30ZM139.068 30L138.578 29.9019L138.458 30.5H139.068V30ZM141.588 17.4V16.9H141.178L141.098 17.3019L141.588 17.4ZM150.786 17.4L151.276 17.4989L151.397 16.9H150.786V17.4ZM150.39 19.362V19.862H150.799L150.88 19.4609L150.39 19.362ZM143.532 19.362V18.862H143.122L143.042 19.2641L143.532 19.362ZM142.578 23.696H148.86V22.696H142.578V23.696ZM148.37 23.0979L147.974 25.0779L148.954 25.2741L149.35 23.2941L148.37 23.0979ZM148.464 24.676H142.182V25.676H148.464V24.676ZM142.672 25.2741L143.068 23.2941L142.088 23.0979L141.692 25.0779L142.672 25.2741ZM141.408 29.5H139.068V30.5H141.408V29.5ZM139.558 30.0981L142.078 17.4981L141.098 17.3019L138.578 29.9019L139.558 30.0981ZM141.588 17.9H150.786V16.9H141.588V17.9ZM150.296 17.3011L149.9 19.2631L150.88 19.4609L151.276 17.4989L150.296 17.3011ZM150.39 18.862H143.532V19.862H150.39V18.862ZM143.042 19.2641L140.918 29.9021L141.898 30.0979L144.022 19.4599L143.042 19.2641ZM153.43 29.496L153.204 29.942L153.43 29.496ZM151.36 27.606L150.927 27.8548L150.931 27.8623L151.36 27.606ZM151.198 21.828L151.663 22.0116L151.664 22.0095L151.198 21.828ZM152.764 19.416L153.118 19.7696V19.7696L152.764 19.416ZM155.212 17.814L155.4 18.2775L155.405 18.2754L155.212 17.814ZM161.62 17.904L161.846 17.458L161.62 17.904ZM163.69 19.812L163.259 20.0655L163.261 20.0683L163.69 19.812ZM163.852 25.59L163.389 25.4033L163.387 25.4064L163.852 25.59ZM162.286 27.984L161.933 27.6304L162.286 27.984ZM159.838 29.604L160.028 30.0666L160.031 30.0654L159.838 29.604ZM159.028 27.714L159.227 28.1727L159.235 28.1695L159.028 27.714ZM160.648 26.544L160.278 26.2085L160.277 26.209L160.648 26.544ZM161.692 24.816L162.161 24.9897L162.162 24.9869L161.692 24.816ZM161.602 20.928L161.168 21.175L161.602 20.928ZM160.288 19.704L160.065 20.1512L160.288 19.704ZM156.022 19.704L156.221 20.1627L156.225 20.1609L156.022 19.704ZM154.384 20.874L154.014 20.5385L154.013 20.539L154.384 20.874ZM153.358 22.602L152.888 22.4311L152.887 22.436L153.358 22.602ZM153.448 26.472L153.009 26.7115L153.014 26.719L153.448 26.472ZM154.762 27.696L154.539 28.1432L154.762 27.696ZM156.688 29.68C155.475 29.68 154.47 29.4625 153.656 29.05L153.204 29.942C154.19 30.4415 155.358 30.68 156.688 30.68V29.68ZM153.656 29.05C152.834 28.6333 152.217 28.0662 151.79 27.3497L150.931 27.8623C151.463 28.7538 152.227 29.4467 153.204 29.942L153.656 29.05ZM151.794 27.3572C151.375 26.6259 151.158 25.7776 151.158 24.798H150.158C150.158 25.9304 150.41 26.9541 150.927 27.8548L151.794 27.3572ZM151.158 24.798C151.158 23.7872 151.329 22.8601 151.663 22.0116L150.733 21.6444C150.348 22.6199 150.158 23.6728 150.158 24.798H151.158ZM151.664 22.0095C152 21.1484 152.484 20.4034 153.118 19.7696L152.411 19.0624C151.677 19.7966 151.117 20.6596 150.733 21.6465L151.664 22.0095ZM153.118 19.7696C153.752 19.1356 154.511 18.6377 155.4 18.2774L155.025 17.3506C154.018 17.7583 153.145 18.3284 152.411 19.0624L153.118 19.7696ZM155.405 18.2754C156.284 17.908 157.274 17.72 158.38 17.72V16.72C157.159 16.72 156.036 16.928 155.02 17.3526L155.405 18.2754ZM158.38 17.72C159.581 17.72 160.58 17.9372 161.394 18.35L161.846 17.458C160.861 16.9588 159.7 16.72 158.38 16.72V17.72ZM161.394 18.35C162.215 18.7658 162.831 19.3375 163.259 20.0655L164.121 19.5585C163.59 18.6545 162.826 17.9542 161.846 17.458L161.394 18.35ZM163.261 20.0683C163.689 20.7853 163.91 21.6245 163.91 22.602H164.91C164.91 21.4675 164.652 20.4467 164.12 19.5557L163.261 20.0683ZM163.91 22.602C163.91 23.6107 163.735 24.5428 163.389 25.4033L164.316 25.7767C164.714 24.7892 164.91 23.7293 164.91 22.602H163.91ZM163.387 25.4064C163.052 26.2556 162.568 26.9955 161.933 27.6304L162.64 28.3376C163.373 27.6045 163.933 26.7484 164.317 25.7736L163.387 25.4064ZM161.933 27.6304C161.298 28.2656 160.537 28.7702 159.646 29.1426L160.031 30.0654C161.035 29.6458 161.907 29.0704 162.64 28.3376L161.933 27.6304ZM159.649 29.1414C158.781 29.4973 157.797 29.68 156.688 29.68V30.68C157.908 30.68 159.024 30.4787 160.028 30.0666L159.649 29.1414ZM156.886 28.628C157.737 28.628 158.52 28.4795 159.227 28.1727L158.829 27.2553C158.264 27.5005 157.62 27.628 156.886 27.628V28.628ZM159.235 28.1695C159.93 27.8546 160.527 27.4248 161.02 26.879L160.277 26.209C159.882 26.6472 159.399 26.9974 158.822 27.2585L159.235 28.1695ZM161.019 26.8795C161.519 26.3275 161.9 25.6963 162.161 24.9897L161.224 24.6423C161.005 25.2317 160.69 25.7525 160.278 26.2085L161.019 26.8795ZM162.162 24.9869C162.423 24.2707 162.552 23.5228 162.552 22.746H161.552C161.552 23.4092 161.442 24.0413 161.222 24.6451L162.162 24.9869ZM162.552 22.746C162.552 21.9865 162.385 21.2934 162.037 20.681L161.168 21.175C161.42 21.6186 161.552 22.1375 161.552 22.746H162.552ZM162.037 20.681C161.685 20.0615 161.171 19.5863 160.512 19.2568L160.065 20.1512C160.558 20.3977 160.92 20.7385 161.168 21.175L162.037 20.681ZM160.512 19.2568C159.849 18.9252 159.059 18.772 158.164 18.772V19.772C158.95 19.772 159.576 19.9068 160.065 20.1512L160.512 19.2568ZM158.164 18.772C157.321 18.772 156.537 18.928 155.819 19.2471L156.225 20.1609C156.803 19.904 157.447 19.772 158.164 19.772V18.772ZM155.823 19.2453C155.123 19.5491 154.518 19.9806 154.014 20.5385L154.755 21.2095C155.162 20.7594 155.649 20.4109 156.221 20.1627L155.823 19.2453ZM154.013 20.539C153.523 21.0817 153.149 21.7142 152.888 22.4311L153.828 22.7729C154.048 22.1698 154.357 21.6503 154.756 21.209L154.013 20.539ZM152.887 22.436C152.639 23.1399 152.516 23.8802 152.516 24.654H153.516C153.516 23.9878 153.622 23.3601 153.83 22.768L152.887 22.436ZM152.516 24.654C152.516 25.41 152.676 26.1004 153.009 26.7114L153.887 26.2326C153.645 25.7876 153.516 25.266 153.516 24.654H152.516ZM153.014 26.719C153.366 27.3385 153.88 27.8137 154.539 28.1432L154.986 27.2488C154.493 27.0023 154.131 26.6615 153.883 26.225L153.014 26.719ZM154.539 28.1432C155.202 28.4748 155.992 28.628 156.886 28.628V27.628C156.101 27.628 155.475 27.4932 154.986 27.2488L154.539 28.1432ZM168.331 29.478L168.076 29.9085L168.331 29.478ZM166.657 27.516L166.187 27.688L166.19 27.6959L166.657 27.516ZM166.531 24.51L166.04 24.4119L166.04 24.4129L166.531 24.51ZM167.953 17.4V16.9H167.543L167.462 17.3019L167.953 17.4ZM170.293 17.4L170.783 17.4985L170.903 16.9H170.293V17.4ZM168.871 24.474L168.38 24.3754L168.378 24.3871L168.871 24.474ZM168.781 26.094L168.283 26.145L168.284 26.1521L168.285 26.1592L168.781 26.094ZM169.213 27.246L168.809 27.541L168.815 27.5498L168.822 27.5583L169.213 27.246ZM170.149 27.912L169.973 28.3802L169.978 28.3819L170.149 27.912ZM173.263 27.75L173.035 27.305L173.03 27.3073L173.263 27.75ZM174.487 26.562L174.06 26.302L174.058 26.3048L174.487 26.562ZM175.261 24.456L175.75 24.5594L175.751 24.5536L175.261 24.456ZM176.665 17.4V16.9H176.254L176.174 17.3024L176.665 17.4ZM178.969 17.4L179.459 17.4978L179.578 16.9H178.969V17.4ZM177.529 24.618L178.019 24.7167L178.019 24.7158L177.529 24.618ZM175.405 28.794L175.736 29.1684L175.739 29.1663L175.405 28.794ZM171.301 29.68C170.177 29.68 169.281 29.4586 168.585 29.0475L168.076 29.9085C168.965 30.4334 170.049 30.68 171.301 30.68V29.68ZM168.585 29.0475C167.888 28.6354 167.406 28.0686 167.123 27.3361L166.19 27.6959C166.556 28.6434 167.19 29.3846 168.076 29.9085L168.585 29.0475ZM167.126 27.3441C166.854 26.6 166.806 25.6951 167.021 24.6071L166.04 24.4129C165.8 25.6289 165.836 26.728 166.187 27.6879L167.126 27.3441ZM167.021 24.6081L168.443 17.4981L167.462 17.3019L166.04 24.4119L167.021 24.6081ZM167.953 17.9H170.293V16.9H167.953V17.9ZM169.803 17.3015L168.381 24.3755L169.361 24.5725L170.783 17.4985L169.803 17.3015ZM168.378 24.3871C168.265 25.031 168.229 25.619 168.283 26.145L169.278 26.043C169.236 25.633 169.261 25.141 169.363 24.5609L168.378 24.3871ZM168.285 26.1592C168.354 26.6825 168.523 27.1496 168.809 27.541L169.616 26.951C169.446 26.7184 169.328 26.4175 169.276 26.0288L168.285 26.1592ZM168.822 27.5583C169.122 27.9335 169.511 28.2067 169.973 28.3802L170.324 27.4438C170.019 27.3293 169.783 27.1585 169.603 26.9337L168.822 27.5583ZM169.978 28.3819C170.441 28.5501 170.963 28.628 171.535 28.628V27.628C171.051 27.628 170.649 27.5619 170.32 27.4421L169.978 28.3819ZM171.535 28.628C172.269 28.628 172.928 28.4903 173.495 28.1927L173.03 27.3073C172.637 27.5137 172.145 27.628 171.535 27.628V28.628ZM173.491 28.195C174.077 27.8947 174.55 27.4279 174.915 26.8192L174.058 26.3048C173.775 26.776 173.433 27.1013 173.035 27.305L173.491 28.195ZM174.914 26.822C175.287 26.2081 175.562 25.4487 175.75 24.5594L174.772 24.3526C174.599 25.1673 174.358 25.8119 174.06 26.302L174.914 26.822ZM175.751 24.5536L177.155 17.4976L176.174 17.3024L174.77 24.3584L175.751 24.5536ZM176.665 17.9H178.969V16.9H176.665V17.9ZM178.478 17.3022L177.038 24.5202L178.019 24.7158L179.459 17.4978L178.478 17.3022ZM177.039 24.5193C176.681 26.2977 176.011 27.5788 175.071 28.4217L175.739 29.1663C176.886 28.1372 177.633 26.6343 178.019 24.7167L177.039 24.5193ZM175.073 28.4196C174.139 29.2462 172.898 29.68 171.301 29.68V30.68C173.088 30.68 174.582 30.1898 175.736 29.1684L175.073 28.4196ZM179.744 30L179.254 29.9019L179.134 30.5H179.744V30ZM182.264 17.4V16.9H181.854L181.774 17.3019L182.264 17.4ZM184.19 17.4L184.621 17.1467L184.476 16.9H184.19V17.4ZM189.932 27.174L189.871 27.6703L190.875 27.7928L190.363 26.9207L189.932 27.174ZM189.194 27.084L188.703 26.9865L188.598 27.5151L189.133 27.5803L189.194 27.084ZM191.12 17.4V16.9H190.71L190.629 17.3025L191.12 17.4ZM193.442 17.4L193.932 17.4981L194.052 16.9H193.442V17.4ZM190.922 30V30.5H191.332L191.412 30.0981L190.922 30ZM188.996 30L188.564 30.2527L188.709 30.5H188.996V30ZM183.272 20.226L183.332 19.7297L182.33 19.6075L182.84 20.4787L183.272 20.226ZM184.01 20.316L184.5 20.4144L184.606 19.885L184.07 19.8197L184.01 20.316ZM182.066 30V30.5H182.475L182.556 30.0984L182.066 30ZM180.234 30.0981L182.754 17.4981L181.774 17.3019L179.254 29.9019L180.234 30.0981ZM182.264 17.9H184.19V16.9H182.264V17.9ZM183.759 17.6533L189.501 27.4273L190.363 26.9207L184.621 17.1467L183.759 17.6533ZM189.992 26.6777L189.254 26.5877L189.133 27.5803L189.871 27.6703L189.992 26.6777ZM189.684 27.1815L191.61 17.4975L190.629 17.3025L188.703 26.9865L189.684 27.1815ZM191.12 17.9H193.442V16.9H191.12V17.9ZM192.952 17.3019L190.432 29.9019L191.412 30.0981L193.932 17.4981L192.952 17.3019ZM190.922 29.5H188.996V30.5H190.922V29.5ZM189.427 29.7473L183.703 19.9733L182.84 20.4787L188.564 30.2527L189.427 29.7473ZM183.211 20.7223L183.949 20.8123L184.07 19.8197L183.332 19.7297L183.211 20.7223ZM183.52 20.2176L181.576 29.9016L182.556 30.0984L184.5 20.4144L183.52 20.2176ZM182.066 29.5H179.744V30.5H182.066V29.5ZM194.316 30L193.826 29.9019L193.706 30.5H194.316V30ZM196.836 17.4V16.9H196.426L196.346 17.3019L196.836 17.4ZM205.224 18.048L205.01 18.4999L205.015 18.5022L205.224 18.048ZM207.312 19.848L206.886 20.1101L206.889 20.1148L207.312 19.848ZM207.474 25.644L207.013 25.45L207.011 25.4552L207.474 25.644ZM205.872 27.984L206.213 28.3502L206.213 28.3499L205.872 27.984ZM203.406 29.478L203.577 29.9481L203.582 29.9462L203.406 29.478ZM197.052 28.02L196.562 27.9219L196.442 28.52H197.052V28.02ZM203.172 27.336L203.419 27.7709L203.421 27.7697L203.172 27.336ZM205.044 25.446L204.605 25.2066L205.044 25.446ZM205.242 20.964L204.812 21.2197V21.2197L205.242 20.964ZM203.892 19.794L203.68 20.2466L203.683 20.2482L203.892 19.794ZM198.78 19.38V18.88H198.37L198.29 19.2819L198.78 19.38ZM194.806 30.0981L197.326 17.4981L196.346 17.3019L193.826 29.9019L194.806 30.0981ZM196.836 17.9H201.93V16.9H196.836V17.9ZM201.93 17.9C203.16 17.9 204.181 18.107 205.01 18.4999L205.438 17.5961C204.444 17.125 203.269 16.9 201.93 16.9V17.9ZM205.015 18.5022C205.846 18.885 206.463 19.4221 206.886 20.11L207.738 19.586C207.201 18.7139 206.426 18.051 205.433 17.5938L205.015 18.5022ZM206.889 20.1148C207.324 20.8038 207.55 21.6264 207.55 22.602H208.55C208.55 21.4656 208.284 20.4522 207.735 19.5812L206.889 20.1148ZM207.55 22.602C207.55 23.6599 207.368 24.6068 207.013 25.45L207.935 25.838C208.348 24.8572 208.55 23.7761 208.55 22.602H207.55ZM207.011 25.4552C206.666 26.3024 206.172 27.0213 205.531 27.6181L206.213 28.3499C206.964 27.6507 207.539 26.8096 207.937 25.8328L207.011 25.4552ZM205.532 27.6178C204.9 28.2052 204.135 28.6705 203.231 29.0098L203.582 29.9462C204.597 29.5655 205.476 29.0348 206.213 28.3502L205.532 27.6178ZM203.236 29.0079C202.338 29.3334 201.329 29.5 200.202 29.5V30.5C201.428 30.5 202.554 30.3186 203.577 29.9481L203.236 29.0079ZM200.202 29.5H194.316V30.5H200.202V29.5ZM197.052 28.52H200.274V27.52H197.052V28.52ZM200.274 28.52C201.47 28.52 202.525 28.278 203.419 27.7709L202.925 26.9011C202.212 27.306 201.335 27.52 200.274 27.52V28.52ZM203.421 27.7697C204.313 27.2578 205.005 26.5621 205.483 25.6854L204.605 25.2066C204.219 25.9139 203.663 26.4782 202.923 26.9023L203.421 27.7697ZM205.483 25.6854C205.96 24.8117 206.192 23.8277 206.192 22.746H205.192C205.192 23.6803 204.993 24.4963 204.605 25.2066L205.483 25.6854ZM206.192 22.746C206.192 21.9871 206.025 21.3017 205.672 20.7083L204.812 21.2197C205.059 21.6343 205.192 22.1369 205.192 22.746H206.192ZM205.672 20.7083C205.314 20.1066 204.781 19.6525 204.101 19.3398L203.683 20.2482C204.203 20.4875 204.571 20.8134 204.812 21.2197L205.672 20.7083ZM204.105 19.3414C203.43 19.0249 202.614 18.88 201.678 18.88V19.88C202.518 19.88 203.178 20.0111 203.68 20.2466L204.105 19.3414ZM201.678 18.88H198.78V19.88H201.678V18.88ZM198.29 19.2819L196.562 27.9219L197.542 28.1181L199.27 19.4781L198.29 19.2819Z" fill="black"/>
<defs>
<filter id="filter0_d_114_35" x="0.5" y="0.5" width="278" height="53" filterUnits="userSpaceOnUse" color-interpolation-filters="sRGB">
<feFlood flood-opacity="0" result="BackgroundImageFix"/>
<feColorMatrix in="SourceAlpha" type="matrix" values="0 0 0 0 0 0 0 0 0 0 0 0 0 0 0 0 0 0 127 0" result="hardAlpha"/>
<feOffset dy="4"/>
<feGaussianBlur stdDeviation="2"/>
<feComposite in2="hardAlpha" operator="out"/>
<feColorMatrix type="matrix" values="0 0 0 0 0 0 0 0 0 0 0 0 0 0 0 0 0 0 0.25 0"/>
<feBlend mode="normal" in2="BackgroundImageFix" result="effect1_dropShadow_114_35"/>
<feBlend mode="normal" in="SourceGraphic" in2="effect1_dropShadow_114_35" result="shape"/>
</filter>
</defs>
</svg>
