<svg width="279" height="54" viewBox="0 0 279 54" fill="none" xmlns="http://www.w3.org/2000/svg">
<g filter="url(#filter0_d_114_35)">
<path d="M254 1H25C13.9543 1 5 9.9543 5 21V25C5 36.0457 13.9543 45 25 45H254C265.046 45 274 36.0457 274 25V21C274 9.95431 265.046 1 254 1Z" stroke="black" shape-rendering="crispEdges"/>
</g>
<path d="M68.738 30L71.258 17.4H73.598L71.474 28.02H78.062L77.666 30H68.738ZM85.5849 30.18C84.3129 30.18 83.2269 29.952 82.3269 29.496C81.4269 29.04 80.7369 28.41 80.2569 27.606C79.7889 26.79 79.5549 25.854 79.5549 24.798C79.5549 23.73 79.7349 22.74 80.0949 21.828C80.4549 20.904 80.9769 20.1 81.6609 19.416C82.3449 18.732 83.1609 18.198 84.1089 17.814C85.0569 17.418 86.1129 17.22 87.2769 17.22C88.5369 17.22 89.6169 17.448 90.5169 17.904C91.4169 18.36 92.1069 18.996 92.5869 19.812C93.0669 20.616 93.3069 21.546 93.3069 22.602C93.3069 23.67 93.1209 24.666 92.7489 25.59C92.3889 26.502 91.8669 27.3 91.1829 27.984C90.4989 28.668 89.6829 29.208 88.7349 29.604C87.7989 29.988 86.7489 30.18 85.5849 30.18ZM85.7829 28.128C86.5749 28.128 87.2889 27.99 87.9249 27.714C88.5609 27.426 89.1009 27.036 89.5449 26.544C90.0009 26.04 90.3489 25.464 90.5889 24.816C90.8289 24.156 90.9489 23.466 90.9489 22.746C90.9489 22.062 90.7989 21.456 90.4989 20.928C90.1989 20.4 89.7609 19.992 89.1849 19.704C88.6089 19.416 87.9009 19.272 87.0609 19.272C86.2809 19.272 85.5669 19.416 84.9189 19.704C84.2829 19.98 83.7369 20.37 83.2809 20.874C82.8369 21.366 82.4949 21.942 82.2549 22.602C82.0269 23.25 81.9129 23.934 81.9129 24.654C81.9129 25.338 82.0569 25.944 82.3449 26.472C82.6449 27 83.0829 27.408 83.6589 27.696C84.2349 27.984 84.9429 28.128 85.7829 28.128ZM98.5592 30.18C97.8992 30.18 97.2572 30.114 96.6332 29.982C96.0212 29.85 95.4572 29.676 94.9412 29.46C94.4372 29.232 94.0172 28.98 93.6812 28.704L94.6712 26.868C95.0192 27.156 95.4152 27.402 95.8592 27.606C96.3032 27.81 96.7712 27.966 97.2632 28.074C97.7672 28.182 98.2712 28.236 98.7752 28.236C99.3872 28.236 99.9212 28.164 100.377 28.02C100.833 27.876 101.181 27.672 101.421 27.408C101.673 27.144 101.799 26.826 101.799 26.454C101.799 26.118 101.685 25.848 101.457 25.644C101.229 25.428 100.923 25.254 100.539 25.122C100.167 24.978 99.7532 24.846 99.2972 24.726C98.8532 24.594 98.4032 24.45 97.9472 24.294C97.4912 24.126 97.0772 23.922 96.7052 23.682C96.3332 23.43 96.0272 23.112 95.7872 22.728C95.5592 22.344 95.4452 21.864 95.4452 21.288C95.4452 20.46 95.6732 19.746 96.1292 19.146C96.5972 18.534 97.2392 18.06 98.0552 17.724C98.8832 17.388 99.8432 17.22 100.935 17.22C101.751 17.22 102.525 17.31 103.257 17.49C103.989 17.67 104.619 17.934 105.147 18.282L104.229 20.136C103.761 19.824 103.233 19.584 102.645 19.416C102.057 19.248 101.445 19.164 100.809 19.164C100.185 19.164 99.6452 19.242 99.1892 19.398C98.7332 19.554 98.3852 19.77 98.1452 20.046C97.9052 20.322 97.7792 20.646 97.7672 21.018C97.7672 21.366 97.8812 21.648 98.1092 21.864C98.3372 22.068 98.6372 22.242 99.0092 22.386C99.3812 22.53 99.7952 22.668 100.251 22.8C100.707 22.92 101.157 23.058 101.601 23.214C102.057 23.37 102.477 23.568 102.861 23.808C103.245 24.048 103.551 24.354 103.779 24.726C104.007 25.086 104.121 25.542 104.121 26.094C104.121 26.922 103.887 27.642 103.419 28.254C102.963 28.866 102.315 29.34 101.475 29.676C100.647 30.012 99.6752 30.18 98.5592 30.18ZM108.138 30L110.262 19.38H106.086L106.482 17.4H117.156L116.76 19.38H112.584L110.478 30H108.138ZM125.344 30.18C124.48 30.18 123.724 30.054 123.076 29.802C122.44 29.55 121.942 29.196 121.582 28.74C121.222 28.272 121.042 27.726 121.042 27.102C121.042 26.418 121.228 25.806 121.6 25.266C121.972 24.726 122.512 24.228 123.22 23.772C123.928 23.316 124.786 22.878 125.794 22.458C126.67 22.11 127.342 21.798 127.81 21.522C128.278 21.246 128.596 20.982 128.764 20.73C128.944 20.478 129.034 20.202 129.034 19.902C129.034 19.602 128.92 19.356 128.692 19.164C128.464 18.96 128.14 18.858 127.72 18.858C127.168 18.858 126.724 19.002 126.388 19.29C126.064 19.578 125.902 19.968 125.902 20.46C125.902 20.724 125.974 21.006 126.118 21.306C126.274 21.594 126.532 21.948 126.892 22.368L132.292 28.758L130.798 30.198L124.966 23.286C124.594 22.854 124.312 22.428 124.12 22.008C123.928 21.588 123.832 21.144 123.832 20.676C123.832 19.968 124.006 19.362 124.354 18.858C124.714 18.342 125.194 17.946 125.794 17.67C126.394 17.394 127.06 17.256 127.792 17.256C128.416 17.256 128.962 17.352 129.43 17.544C129.91 17.736 130.282 18.018 130.546 18.39C130.822 18.75 130.96 19.194 130.96 19.722C130.96 20.346 130.786 20.898 130.438 21.378C130.09 21.846 129.586 22.278 128.926 22.674C128.266 23.07 127.462 23.466 126.514 23.862C125.77 24.186 125.158 24.492 124.678 24.78C124.21 25.068 123.862 25.368 123.634 25.68C123.406 25.98 123.292 26.328 123.292 26.724C123.292 27.192 123.484 27.582 123.868 27.894C124.264 28.194 124.828 28.344 125.56 28.344C126.292 28.344 127 28.176 127.684 27.84C128.38 27.492 129.01 26.976 129.574 26.292C130.15 25.608 130.636 24.762 131.032 23.754L132.76 24.348C132.268 25.596 131.65 26.658 130.906 27.534C130.162 28.398 129.316 29.058 128.368 29.514C127.432 29.958 126.424 30.18 125.344 30.18ZM142.578 23.196H148.86L148.464 25.176H142.182L142.578 23.196ZM141.408 30H139.068L141.588 17.4H150.786L150.39 19.362H143.532L141.408 30ZM156.688 30.18C155.416 30.18 154.33 29.952 153.43 29.496C152.53 29.04 151.84 28.41 151.36 27.606C150.892 26.79 150.658 25.854 150.658 24.798C150.658 23.73 150.838 22.74 151.198 21.828C151.558 20.904 152.08 20.1 152.764 19.416C153.448 18.732 154.264 18.198 155.212 17.814C156.16 17.418 157.216 17.22 158.38 17.22C159.64 17.22 160.72 17.448 161.62 17.904C162.52 18.36 163.21 18.996 163.69 19.812C164.17 20.616 164.41 21.546 164.41 22.602C164.41 23.67 164.224 24.666 163.852 25.59C163.492 26.502 162.97 27.3 162.286 27.984C161.602 28.668 160.786 29.208 159.838 29.604C158.902 29.988 157.852 30.18 156.688 30.18ZM156.886 28.128C157.678 28.128 158.392 27.99 159.028 27.714C159.664 27.426 160.204 27.036 160.648 26.544C161.104 26.04 161.452 25.464 161.692 24.816C161.932 24.156 162.052 23.466 162.052 22.746C162.052 22.062 161.902 21.456 161.602 20.928C161.302 20.4 160.864 19.992 160.288 19.704C159.712 19.416 159.004 19.272 158.164 19.272C157.384 19.272 156.67 19.416 156.022 19.704C155.386 19.98 154.84 20.37 154.384 20.874C153.94 21.366 153.598 21.942 153.358 22.602C153.13 23.25 153.016 23.934 153.016 24.654C153.016 25.338 153.16 25.944 153.448 26.472C153.748 27 154.186 27.408 154.762 27.696C155.338 27.984 156.046 28.128 156.886 28.128ZM171.301 30.18C170.113 30.18 169.123 29.946 168.331 29.478C167.539 29.01 166.981 28.356 166.657 27.516C166.345 26.664 166.303 25.662 166.531 24.51L167.953 17.4H170.293L168.871 24.474C168.763 25.086 168.733 25.626 168.781 26.094C168.841 26.55 168.985 26.934 169.213 27.246C169.453 27.546 169.765 27.768 170.149 27.912C170.545 28.056 171.007 28.128 171.535 28.128C172.207 28.128 172.783 28.002 173.263 27.75C173.755 27.498 174.163 27.102 174.487 26.562C174.823 26.01 175.081 25.308 175.261 24.456L176.665 17.4H178.969L177.529 24.618C177.157 26.466 176.449 27.858 175.405 28.794C174.361 29.718 172.993 30.18 171.301 30.18ZM179.744 30L182.264 17.4H184.19L189.932 27.174L189.194 27.084L191.12 17.4H193.442L190.922 30H188.996L183.272 20.226L184.01 20.316L182.066 30H179.744ZM194.316 30L196.836 17.4H201.93C203.214 17.4 204.312 17.616 205.224 18.048C206.136 18.468 206.832 19.068 207.312 19.848C207.804 20.628 208.05 21.546 208.05 22.602C208.05 23.718 207.858 24.732 207.474 25.644C207.102 26.556 206.568 27.336 205.872 27.984C205.188 28.62 204.366 29.118 203.406 29.478C202.446 29.826 201.378 30 200.202 30H194.316ZM197.052 28.02H200.274C201.402 28.02 202.368 27.792 203.172 27.336C203.988 26.868 204.612 26.238 205.044 25.446C205.476 24.654 205.692 23.754 205.692 22.746C205.692 22.062 205.542 21.468 205.242 20.964C204.942 20.46 204.492 20.07 203.892 19.794C203.304 19.518 202.566 19.38 201.678 19.38H198.78L197.052 28.02Z" fill="black"/>
<defs>
<filter id="filter0_d_114_35" x="0.5" y="0.5" width="278" height="53" filterUnits="userSpaceOnUse" color-interpolation-filters="sRGB">
<feFlood flood-opacity="0" result="BackgroundImageFix"/>
<feColorMatrix in="SourceAlpha" type="matrix" values="0 0 0 0 0 0 0 0 0 0 0 0 0 0 0 0 0 0 127 0" result="hardAlpha"/>
<feOffset dy="4"/>
<feGaussianBlur stdDeviation="2"/>
<feComposite in2="hardAlpha" operator="out"/>
<feColorMatrix type="matrix" values="0 0 0 0 0 0 0 0 0 0 0 0 0 0 0 0 0 0 0.25 0"/>
<feBlend mode="normal" in2="BackgroundImageFix" result="effect1_dropShadow_114_35"/>
<feBlend mode="normal" in="SourceGraphic" in2="effect1_dropShadow_114_35" result="shape"/>
</filter>
</defs>
</svg>
